<?xml version="1.0" standalone="no"?>
<!DOCTYPE svg PUBLIC "-//W3C//DTD SVG 20010904//EN"
 "http://www.w3.org/TR/2001/REC-SVG-20010904/DTD/svg10.dtd">
<svg version="1.0" xmlns="http://www.w3.org/2000/svg"
 width="566.000000pt" height="517.000000pt" viewBox="0 0 566.000000 517.000000"
 preserveAspectRatio="xMidYMid meet">

<g transform="translate(0.000000,517.000000) scale(0.100000,-0.100000)"
fill="#3B8ED0" stroke="none">
<path d="M0 2585 l0 -2585 2830 0 2830 0 0 2585 0 2585 -2830 0 -2830 0 0
-2585z m2932 1783 c249 -843 371 -1253 374 -1257 2 -2 45 -16 96 -31 236 -71
885 -267 1192 -361 l339 -104 -109 -34 c-60 -19 -426 -130 -814 -246 l-705
-212 -27 -94 c-304 -1039 -464 -1577 -470 -1571 -3 4 -11 23 -16 42 -9 31
-121 413 -353 1205 -39 132 -83 280 -97 330 l-27 89 -701 211 c-385 116 -750
226 -810 244 l-109 34 55 19 c50 17 852 261 1345 409 110 33 205 62 210 63 9
3 181 571 428 1414 39 133 74 242 77 242 3 0 58 -177 122 -392z m-1215 -521
c272 -272 273 -273 273 -316 0 -58 -41 -101 -96 -101 -36 0 -50 12 -306 267
-147 147 -272 279 -278 294 -9 21 -9 37 0 63 15 46 44 66 95 66 39 0 46 -6
312 -273z m2560 258 c26 -18 47 -77 39 -108 -3 -12 -126 -145 -273 -295 -241
-245 -271 -273 -300 -272 -88 0 -137 75 -99 148 8 15 131 143 273 285 252 250
260 257 299 257 22 0 49 -7 61 -15z m-2342 -2317 c32 -15 55 -56 55 -99 0 -34
14 -19 -441 -481 -92 -93 -99 -98 -139 -98 -59 0 -100 41 -100 101 0 42 2 44
253 297 138 140 266 263 282 273 35 22 54 24 90 7z m2107 -266 l268 -268 0
-44 c0 -61 -37 -100 -94 -100 -40 0 -46 5 -303 263 -143 144 -266 272 -272
284 -20 40 -13 73 24 110 32 32 40 35 73 30 32 -6 71 -41 304 -275z"/>
</g>
</svg>
